<svg width="100" height="100" viewBox="0 0 100 100" fill="none" xmlns="http://www.w3.org/2000/svg">
<rect width="100" height="100" rx="20" fill="#A8BBA2"/>
<path d="M52.3747 25.6333C55.954 25.6333 58.9368 26.0692 61.323 26.9411C63.755 27.7671 65.5676 29.0061 66.7607 30.6581C67.9997 32.31 68.6192 34.398 68.6192 36.9218C68.6192 38.8491 68.1833 40.5241 67.3114 41.9466C66.4854 43.3691 65.407 44.5393 64.0763 45.4571C62.7455 46.3748 61.2541 47.0861 59.6021 47.5909C57.9502 48.0498 56.3211 48.3251 54.715 48.4169V48.9675C56.78 49.0134 58.7991 49.2887 60.7723 49.7935C62.7455 50.2524 64.5122 50.9637 66.0724 51.9273C67.6326 52.891 68.8716 54.1529 69.7894 55.7131C70.7071 57.2274 71.166 59.1088 71.166 61.3574C71.166 63.56 70.753 65.4873 69.927 67.1393C69.1469 68.7454 67.9768 70.0991 66.4166 71.2004C64.8564 72.2559 62.9061 73.0589 60.5658 73.6096C58.2255 74.1143 55.4951 74.3667 52.3747 74.3667H28.834V73.6784L33.0328 72.6459V27.3541L28.834 26.3216V25.6333H52.3747ZM50.6539 26.7346C48.4054 26.7346 46.4781 26.7805 44.872 26.8723C43.2659 26.9182 41.9581 27.0329 40.9485 27.2164V72.8524C42.6923 73.1736 46.0192 73.3342 50.9293 73.3342C53.5449 73.3342 55.7934 72.9212 57.6748 72.0952C59.6021 71.2693 61.0706 69.9385 62.0801 68.103C63.1355 66.2215 63.6633 63.8124 63.6633 60.8755C63.6633 56.975 62.6078 54.107 60.497 52.2715C58.432 50.3901 55.0821 49.4035 50.4474 49.3117L40.4667 49.174V48.4169L50.4474 48.2792C53.0172 48.2333 55.1051 47.7515 56.7112 46.8337C58.3632 45.8701 59.5792 44.5393 60.3593 42.8414C61.1853 41.1436 61.5983 39.1704 61.5983 36.9218C61.5983 33.6179 60.6805 31.094 58.845 29.3503C57.0095 27.6065 54.2791 26.7346 50.6539 26.7346Z" fill="#121111"/>
</svg>
