<svg width="101" height="101" viewBox="0 0 101 101" fill="none" xmlns="http://www.w3.org/2000/svg">
<path d="M80.6313 0.015686C91.677 0.015686 100.631 8.96999 100.631 20.0157V80.0157C100.631 91.0614 91.677 100.016 80.6313 100.016H20.6313C9.58561 100.016 0.631302 91.0614 0.631302 80.0157V20.0157C0.631302 8.96999 9.58561 0.0156862 20.6313 0.015686H80.6313ZM29.4653 25.6495V26.337L33.6645 27.3702V72.6612L29.4653 73.6944V74.3829H53.0063C56.1265 74.3829 58.8566 74.1298 61.1967 73.6251C63.537 73.0744 65.4881 72.2713 67.0483 71.2159C68.6082 70.1147 69.778 68.7611 70.5581 67.1553C71.384 65.5034 71.7973 63.5757 71.7973 61.3731C71.7973 59.1246 71.3381 57.2429 70.4204 55.7286C69.5026 54.1685 68.2636 52.907 66.7036 51.9434C65.1434 50.9798 63.3769 50.2685 61.4038 49.8096C59.4306 49.3049 57.4111 49.0293 55.3461 48.9835V48.4327C56.9522 48.3409 58.5819 48.0654 60.2338 47.6065C61.8857 47.1017 63.3768 46.3904 64.7075 45.4727C66.0382 44.555 67.1168 43.3845 67.9428 41.962C68.8146 40.5395 69.2504 38.8647 69.2504 36.9376C69.2504 34.4137 68.631 32.3259 67.392 30.6739C66.199 29.022 64.3865 27.7831 61.9545 26.9571C59.5684 26.0852 56.5855 25.6495 53.0063 25.6495H29.4653ZM51.0786 49.3272C55.7133 49.419 59.0634 50.4057 61.1284 52.2872C63.2392 54.1227 64.2944 56.9912 64.2944 60.8917C64.2943 63.8282 63.7666 66.2369 62.7114 68.1182C61.7018 69.9538 60.2334 71.2854 58.3061 72.1114C56.4248 72.9373 54.1763 73.3496 51.561 73.3497C46.6509 73.3497 43.3233 73.1894 41.5795 72.8682V49.1954L51.0786 49.3272ZM51.2856 26.7501C54.9106 26.7501 57.6406 27.6226 59.476 29.3663C61.3115 31.11 62.2299 33.6336 62.2299 36.9376C62.2299 39.1861 61.8167 41.1596 60.9907 42.8575C60.2106 44.5552 58.9941 45.8861 57.3422 46.8497C55.7362 47.7673 53.6482 48.2491 51.0786 48.295L41.5795 48.4258V27.2325C42.5891 27.0489 43.8973 26.9336 45.5034 26.8878C47.1094 26.796 49.0371 26.7501 51.2856 26.7501Z" fill="#A8BBA2"/>
</svg>
