<svg width="200" height="39" viewBox="0 0 200 39" fill="none" xmlns="http://www.w3.org/2000/svg">
<path d="M171.655 37.5389V37.1397L174.449 36.6207V12.9064C174.449 12.2943 174.196 11.6954 173.691 11.1099C173.185 10.4978 172.506 10.0187 171.655 9.67268V9.27345H177.883L195.848 32.1094H196.367V19.374C196.367 18.4424 196.287 17.5508 196.127 16.6991C195.968 15.8474 195.702 15.0623 195.329 14.3437C194.983 13.5984 194.544 12.9198 194.012 12.3076C193.479 11.6954 192.84 11.1764 192.095 10.7506C191.377 10.2981 190.552 9.93884 189.62 9.67268V9.27345H200V9.67268L196.966 10.1917V37.5389H194.491L175.567 13.5851H175.048V25.6419C175.048 26.7597 175.128 27.811 175.288 28.7958C175.474 29.754 175.753 30.6589 176.126 31.5106C176.499 32.3356 176.978 33.1075 177.563 33.8261C178.149 34.5181 178.854 35.1436 179.679 35.7025C180.504 36.2614 181.476 36.7405 182.594 37.1397V37.5389H171.655Z" fill="#121111"/>
<path d="M140.082 37.5389V37.1397L142.557 36.6207L153.257 9.27345H156.291L166.83 36.6207L169.266 37.1397V37.5389H159.085V37.2196L161.92 36.6606L152.857 12.9863H152.418L147.468 26.1609C146.989 27.3586 146.616 28.503 146.35 29.5943C146.11 30.6855 145.991 31.6436 145.991 32.4687C145.991 33.3736 146.15 34.1854 146.47 34.904C146.816 35.6226 147.361 36.1816 148.107 36.5808C148.852 36.9534 149.823 37.1397 151.021 37.1397V37.5389H140.082ZM146.949 26.0411V25.6419L158.087 25.2027V26.0411H146.949Z" fill="#121111"/>
<path d="M114.506 37.5389V37.1397L116.941 36.5409V10.2715L114.506 9.67268V9.27345H137.022L135.665 19.2542H135.146L133.868 12.8266C133.629 11.7886 133.216 11.0434 132.631 10.5909C132.045 10.1118 131.327 9.8723 130.475 9.8723H121.532V22.8872H126.163C126.536 22.8872 126.882 22.794 127.201 22.6077C127.521 22.3948 127.8 22.142 128.04 21.8492C128.412 21.4234 128.705 20.8245 128.918 20.0527C129.158 19.2808 129.304 18.4424 129.357 17.5375H129.756V27.4783H129.357L126.682 23.4062H121.532V36.9401H130.874C131.779 36.9401 132.538 36.634 133.15 36.0219C133.762 35.4097 134.188 34.4915 134.427 33.2672L135.146 27.119H135.665L137.022 37.5389H114.506Z" fill="#121111"/>
<path d="M89.6708 37.5389V37.1397L92.1061 36.7405V10.0719L89.6708 9.67268V9.27345H99.1725V9.67268L96.6973 10.0719V36.9401H104.602C105.214 36.9401 105.747 36.7671 106.199 36.4211C106.678 36.0751 107.091 35.5295 107.437 34.7843C107.783 34.039 108.089 33.0543 108.355 31.83L109.113 26.7997H109.792L110.95 37.5389H89.6708Z" fill="#121111"/>
<path d="M72.2793 8.67463C74.1956 8.67463 75.9389 8.98071 77.5092 9.59286C79.0795 10.205 80.4369 11.1232 81.5814 12.3475C82.7524 13.5719 83.6441 15.1022 84.2562 16.9387C84.895 18.7485 85.2144 20.8778 85.2144 23.3264C85.2144 25.7218 84.9083 27.851 84.2961 29.7141C83.684 31.5505 82.8057 33.0942 81.6612 34.3451C80.5168 35.5961 79.1461 36.5409 77.5492 37.1797C75.9788 37.8184 74.2222 38.1378 72.2793 38.1378C70.3364 38.1378 68.5665 37.8184 66.9696 37.1797C65.3726 36.5143 64.0019 35.5561 62.8575 34.3052C61.713 33.0543 60.8214 31.5106 60.1826 29.6741C59.5705 27.8111 59.2644 25.6818 59.2644 23.2865C59.2644 21.0241 59.5705 19.0014 60.1826 17.2182C60.7948 15.4083 61.6598 13.8779 62.7776 12.627C63.9221 11.3495 65.2928 10.378 66.8897 9.71263C68.5132 9.02063 70.3098 8.67463 72.2793 8.67463ZM72.2793 9.19363C70.9485 9.19363 69.7642 9.4864 68.7262 10.0719C67.6882 10.6575 66.8099 11.5358 66.0912 12.7069C65.3992 13.8779 64.8669 15.3418 64.4943 17.0984C64.1483 18.855 63.9753 20.9044 63.9753 23.2465C63.9753 25.6153 64.1483 27.6913 64.4943 29.4745C64.8669 31.2578 65.3992 32.7482 66.0912 33.9459C66.8099 35.1436 67.6882 36.0485 68.7262 36.6607C69.7642 37.2728 70.9485 37.5789 72.2793 37.5789C73.6367 37.5789 74.8211 37.2861 75.8325 36.7006C76.8705 36.1151 77.7355 35.2234 78.4275 34.0257C79.1195 32.8281 79.6385 31.3376 79.9845 29.5544C80.3305 27.7445 80.5035 25.6286 80.5035 23.2066C80.5035 20.8645 80.3305 18.8151 79.9845 17.0585C79.6385 15.3018 79.1195 13.838 78.4275 12.6669C77.7355 11.4959 76.8705 10.6309 75.8325 10.0719C74.8211 9.4864 73.6367 9.19363 72.2793 9.19363Z" fill="#121111"/>
<path d="M41.7132 8.67463C43.6295 8.67463 45.3728 8.98071 46.9431 9.59286C48.5134 10.205 49.8708 11.1232 51.0153 12.3475C52.1863 13.5719 53.078 15.1022 53.6901 16.9387C54.3289 18.7485 54.6483 20.8778 54.6483 23.3264C54.6483 25.7218 54.3422 27.851 53.73 29.7141C53.1179 31.5505 52.2396 33.0942 51.0951 34.3451C49.9507 35.5961 48.58 36.5409 46.9831 37.1797C45.4127 37.8184 43.6561 38.1378 41.7132 38.1378C39.7703 38.1378 38.0004 37.8184 36.4035 37.1797C34.8065 36.5143 33.4358 35.5561 32.2914 34.3052C31.1469 33.0543 30.2553 31.5106 29.6165 29.6741C29.0044 27.8111 28.6983 25.6818 28.6983 23.2865C28.6983 21.0241 29.0044 19.0014 29.6165 17.2182C30.2287 15.4083 31.0937 13.8779 32.2115 12.627C33.356 11.3495 34.7267 10.378 36.3236 9.71263C37.9471 9.02063 39.7437 8.67463 41.7132 8.67463ZM41.7132 9.19363C40.3824 9.19363 39.1981 9.4864 38.1601 10.0719C37.1221 10.6575 36.2438 11.5358 35.5251 12.7069C34.8331 13.8779 34.3008 15.3418 33.9282 17.0984C33.5822 18.855 33.4092 20.9044 33.4092 23.2465C33.4092 25.6153 33.5822 27.6913 33.9282 29.4745C34.3008 31.2578 34.8331 32.7482 35.5251 33.9459C36.2438 35.1436 37.1221 36.0485 38.1601 36.6607C39.1981 37.2728 40.3824 37.5789 41.7132 37.5789C43.0706 37.5789 44.255 37.2861 45.2664 36.7006C46.3044 36.1151 47.1694 35.2234 47.8614 34.0257C48.5534 32.8281 49.0724 31.3376 49.4183 29.5544C49.7643 27.7445 49.9373 25.6286 49.9373 23.2066C49.9373 20.8645 49.7643 18.8151 49.4183 17.0585C49.0724 15.3018 48.5534 13.838 47.8614 12.6669C47.1694 11.4959 46.3044 10.6309 45.2664 10.0719C44.255 9.4864 43.0706 9.19363 41.7132 9.19363Z" fill="#121111"/>
<path d="M25.7439 10.9421L19.5071 4.25931L23.5932 4.30601L26.1259 10.7573L25.7439 10.9421Z" fill="#121111"/>
<path d="M124.811 5.83423L132.695 1.2088L128.766 0.0876364L124.498 5.54809L124.811 5.83423Z" fill="#121111"/>
<path d="M13.6536 9.27345C15.7296 9.27345 17.4596 9.5263 18.8436 10.032C20.2542 10.5111 21.3055 11.2297 21.9975 12.1878C22.7161 13.146 23.0754 14.357 23.0754 15.8208C23.0754 16.9387 22.8226 17.9101 22.3169 18.7352C21.8378 19.5603 21.2124 20.239 20.4405 20.7713C19.6687 21.3036 18.8037 21.7161 17.8455 22.0089C16.8874 22.275 15.9425 22.4347 15.011 22.488V22.8074C16.2087 22.834 17.3798 22.9937 18.5242 23.2864C19.6687 23.5526 20.6934 23.9651 21.5983 24.524C22.5032 25.083 23.2218 25.8149 23.7541 26.7198C24.2864 27.5981 24.5526 28.6893 24.5526 29.9935C24.5526 31.271 24.3131 32.3889 23.834 33.347C23.3815 34.2786 22.7028 35.0637 21.7979 35.7025C20.893 36.3146 19.7618 36.7804 18.4045 37.0998C17.0471 37.3926 15.4635 37.5389 13.6536 37.5389H-6.10352e-05V37.1397L2.43524 36.5409V10.2715L-6.10352e-05 9.67268V9.27345H13.6536ZM12.6555 9.91222C11.3514 9.91222 10.2335 9.93883 9.302 9.99206C8.37046 10.0187 7.61193 10.0852 7.02639 10.1917V36.6606C8.03777 36.8469 9.96739 36.9401 12.8152 36.9401C14.3323 36.9401 15.6365 36.7006 16.7277 36.2215C17.8455 35.7424 18.6972 34.9706 19.2828 33.906C19.8949 32.8147 20.201 31.4174 20.201 29.714C20.201 27.4517 19.5888 25.7883 18.3645 24.7237C17.1668 23.6324 15.2239 23.0602 12.5358 23.007L6.74693 22.9271V22.488L12.5358 22.4081C14.0262 22.3815 15.2372 22.102 16.1688 21.5697C17.1269 21.0108 17.8322 20.239 18.2847 19.2542C18.7638 18.2694 19.0033 17.125 19.0033 15.8208C19.0033 13.9045 18.471 12.4407 17.4064 11.4293C16.3418 10.4179 14.7581 9.91222 12.6555 9.91222Z" fill="#121111"/>
</svg>
